<?xml version="1.0" ?><!DOCTYPE svg  PUBLIC '-//W3C//DTD SVG 1.1//EN'  'http://www.w3.org/Graphics/SVG/1.1/DTD/svg11.dtd'><svg xmlns="http://www.w3.org/2000/svg" xmlns:xlink="http://www.w3.org/1999/xlink" xml:space="preserve" width="2.83333in" height="2.83333in" version="1.1" style="shape-rendering:geometricPrecision; text-rendering:geometricPrecision; image-rendering:optimizeQuality; fill-rule:evenodd; clip-rule:evenodd" viewBox="0 0 2833 2833"><defs><style type="text/css">
   <![CDATA[
    .fil0 {fill:#061420}
    .fil2 {fill:#FFD80D}
    .fil1 {fill:white}
   ]]>
  </style></defs><g id="Layer_x0020_1"><circle class="fil0" cx="1417" cy="1417" r="1417"/><g id="_424981040"><path class="fil1" d="M1869 2270c-11,0 -20,-9 -20,-20l0 -179 -117 0 0 179c0,14 -15,24 -28,18 -76,-34 -125,-109 -125,-192 0,-79 44,-151 113,-187l0 -943c-69,-36 -113,-108 -113,-186 0,-83 49,-159 125,-193 13,-6 28,4 28,18l0 179 117 0 0 -179c0,-14 15,-24 28,-18 76,34 124,110 124,193 0,78 -43,150 -112,186l0 943c69,36 112,108 112,187 0,83 -48,158 -124,192 -3,1 -6,2 -8,2z"/><path class="fil2" d="M981 2270c-82,0 -149,-67 -149,-149l0 -440c6,2 13,3 20,3l259 0c7,0 13,-1 20,-3l0 440c0,82 -67,149 -150,149zm0 -62c-11,0 -20,-9 -20,-20l0 -426c0,-26 40,-26 40,0l0 426c0,11 -9,20 -20,20z"/><path class="fil2" d="M900 1353l0 -484 162 0 0 484 -162 0zm81 -85c-11,0 -20,-9 -20,-20l0 -274c0,-26 40,-26 40,0l0 274c0,11 -9,20 -20,20z"/><path class="fil2" d="M905 829l-32 -37c-5,-5 -6,-12 -5,-18l50 -196c2,-8 10,-15 19,-15l88 0c10,0 18,7 20,15l49 196c2,6 0,13 -4,18l-33 37 0 0 -152 0z"/><path class="fil2" d="M1111 1644l-259 0c-11,0 -20,-9 -20,-20l0 -174c0,-32 25,-57 57,-57l185 0c31,0 57,25 57,57l0 174c0,11 -9,20 -20,20z"/></g></g></svg>